<mxfile host="app.diagrams.net" modified="2024-04-08T21:50:51.470Z" agent="Mozilla/5.0 (Windows NT 10.0; Win64; x64) AppleWebKit/537.36 (KHTML, like Gecko) Chrome/123.0.0.0 Safari/537.36" etag="1Ymunne7l-iOY-ylsBky" version="24.2.3" type="device" pages="2">
  <diagram name="Arquitectura-espacio" id="M0kS8BBjzuwC6rP2S_f7">
    <mxGraphModel dx="797" dy="437" grid="1" gridSize="10" guides="1" tooltips="1" connect="1" arrows="1" fold="1" page="1" pageScale="1" pageWidth="827" pageHeight="1169" math="0" shadow="0">
      <root>
        <mxCell id="0" />
        <mxCell id="1" parent="0" />
        <mxCell id="yPq4IDfLYK5XOsK69Q8Q-12" value="" style="rounded=0;whiteSpace=wrap;html=1;fillColor=#E1D5E7;strokeColor=#000000;" vertex="1" parent="1">
          <mxGeometry x="100" y="150" width="240" height="220" as="geometry" />
        </mxCell>
        <mxCell id="yPq4IDfLYK5XOsK69Q8Q-2" value="S1" style="ellipse;whiteSpace=wrap;html=1;fillColor=#FF6352;strokeColor=#000000;" vertex="1" parent="1">
          <mxGeometry x="110" y="240" width="40" height="40" as="geometry" />
        </mxCell>
        <mxCell id="yPq4IDfLYK5XOsK69Q8Q-3" value="S2" style="ellipse;whiteSpace=wrap;html=1;fillColor=#FF6352;strokeColor=#000000;" vertex="1" parent="1">
          <mxGeometry x="160" y="160" width="40" height="40" as="geometry" />
        </mxCell>
        <mxCell id="yPq4IDfLYK5XOsK69Q8Q-4" value="S3" style="ellipse;whiteSpace=wrap;html=1;fillColor=#FF6352;strokeColor=#000000;" vertex="1" parent="1">
          <mxGeometry x="240" y="160" width="40" height="40" as="geometry" />
        </mxCell>
        <mxCell id="yPq4IDfLYK5XOsK69Q8Q-5" value="A2" style="rhombus;whiteSpace=wrap;html=1;fillColor=#3FBDFC;strokeColor=#000000;" vertex="1" parent="1">
          <mxGeometry x="240" y="320" width="40" height="40" as="geometry" />
        </mxCell>
        <mxCell id="yPq4IDfLYK5XOsK69Q8Q-6" value="A1" style="rhombus;whiteSpace=wrap;html=1;fillColor=#3FBDFC;strokeColor=#000000;" vertex="1" parent="1">
          <mxGeometry x="290" y="240" width="40" height="40" as="geometry" />
        </mxCell>
        <mxCell id="yPq4IDfLYK5XOsK69Q8Q-9" value="A3" style="rhombus;whiteSpace=wrap;html=1;fillColor=#3FBDFC;strokeColor=#000000;" vertex="1" parent="1">
          <mxGeometry x="160" y="320" width="40" height="40" as="geometry" />
        </mxCell>
        <mxCell id="yPq4IDfLYK5XOsK69Q8Q-13" value="Espacio 1" style="text;html=1;align=center;verticalAlign=middle;resizable=0;points=[];autosize=1;strokeColor=none;fillColor=none;" vertex="1" parent="1">
          <mxGeometry x="90" y="150" width="80" height="30" as="geometry" />
        </mxCell>
        <mxCell id="yPq4IDfLYK5XOsK69Q8Q-14" value="" style="endArrow=none;html=1;rounded=0;exitX=0;exitY=0;exitDx=0;exitDy=0;entryX=1;entryY=1;entryDx=0;entryDy=0;" edge="1" parent="1" source="yPq4IDfLYK5XOsK69Q8Q-5" target="yPq4IDfLYK5XOsK69Q8Q-3">
          <mxGeometry width="50" height="50" relative="1" as="geometry">
            <mxPoint x="75" y="190" as="sourcePoint" />
            <mxPoint x="185" y="180" as="targetPoint" />
          </mxGeometry>
        </mxCell>
        <mxCell id="yPq4IDfLYK5XOsK69Q8Q-15" value="" style="endArrow=none;html=1;rounded=0;entryX=0.23;entryY=0.913;entryDx=0;entryDy=0;entryPerimeter=0;exitX=1;exitY=0;exitDx=0;exitDy=0;" edge="1" parent="1" source="yPq4IDfLYK5XOsK69Q8Q-9" target="yPq4IDfLYK5XOsK69Q8Q-4">
          <mxGeometry width="50" height="50" relative="1" as="geometry">
            <mxPoint x="320" y="332" as="sourcePoint" />
            <mxPoint x="260" y="200" as="targetPoint" />
          </mxGeometry>
        </mxCell>
        <mxCell id="yPq4IDfLYK5XOsK69Q8Q-16" value="" style="endArrow=none;html=1;rounded=0;entryX=0.746;entryY=0.948;entryDx=0;entryDy=0;entryPerimeter=0;exitX=0;exitY=0.5;exitDx=0;exitDy=0;" edge="1" parent="1" source="yPq4IDfLYK5XOsK69Q8Q-6">
          <mxGeometry width="50" height="50" relative="1" as="geometry">
            <mxPoint x="210" y="392" as="sourcePoint" />
            <mxPoint x="150" y="260" as="targetPoint" />
          </mxGeometry>
        </mxCell>
        <mxCell id="yPq4IDfLYK5XOsK69Q8Q-7" value="C1" style="whiteSpace=wrap;html=1;aspect=fixed;fillColor=#07F807;strokeColor=#000000;" vertex="1" parent="1">
          <mxGeometry x="200" y="240" width="40" height="40" as="geometry" />
        </mxCell>
      </root>
    </mxGraphModel>
  </diagram>
  <diagram id="9sWpqmUGWR10s4DKmChA" name="Arquitectura-API">
    <mxGraphModel dx="683" dy="374" grid="1" gridSize="10" guides="1" tooltips="1" connect="1" arrows="1" fold="1" page="1" pageScale="1" pageWidth="827" pageHeight="1169" math="0" shadow="0">
      <root>
        <mxCell id="0" />
        <mxCell id="1" parent="0" />
        <mxCell id="zL4rEWdgPfDy6z_3ENHg-1" value="Espacio 2" style="rounded=0;whiteSpace=wrap;html=1;" vertex="1" parent="1">
          <mxGeometry x="360" y="80" width="120" height="50" as="geometry" />
        </mxCell>
        <mxCell id="zL4rEWdgPfDy6z_3ENHg-6" value="Espacio 1" style="rounded=0;whiteSpace=wrap;html=1;" vertex="1" parent="1">
          <mxGeometry x="200" y="80" width="120" height="50" as="geometry" />
        </mxCell>
        <mxCell id="zL4rEWdgPfDy6z_3ENHg-7" value="Espacio 3" style="rounded=0;whiteSpace=wrap;html=1;" vertex="1" parent="1">
          <mxGeometry x="520" y="80" width="120" height="50" as="geometry" />
        </mxCell>
        <mxCell id="zL4rEWdgPfDy6z_3ENHg-8" value="Espacio 4" style="rounded=0;whiteSpace=wrap;html=1;" vertex="1" parent="1">
          <mxGeometry x="520" y="160" width="120" height="50" as="geometry" />
        </mxCell>
        <mxCell id="zL4rEWdgPfDy6z_3ENHg-9" value="Espacio 5" style="rounded=0;whiteSpace=wrap;html=1;" vertex="1" parent="1">
          <mxGeometry x="520" y="230" width="120" height="50" as="geometry" />
        </mxCell>
        <mxCell id="zL4rEWdgPfDy6z_3ENHg-10" value="Espacio 6" style="rounded=0;whiteSpace=wrap;html=1;" vertex="1" parent="1">
          <mxGeometry x="520" y="310" width="120" height="50" as="geometry" />
        </mxCell>
        <mxCell id="zL4rEWdgPfDy6z_3ENHg-11" value="Espacio 7" style="rounded=0;whiteSpace=wrap;html=1;" vertex="1" parent="1">
          <mxGeometry x="360" y="310" width="120" height="50" as="geometry" />
        </mxCell>
        <mxCell id="zL4rEWdgPfDy6z_3ENHg-12" value="Espacio 8" style="rounded=0;whiteSpace=wrap;html=1;" vertex="1" parent="1">
          <mxGeometry x="200" y="310" width="120" height="50" as="geometry" />
        </mxCell>
        <mxCell id="zL4rEWdgPfDy6z_3ENHg-13" value="Espacio 9" style="rounded=0;whiteSpace=wrap;html=1;" vertex="1" parent="1">
          <mxGeometry x="200" y="230" width="120" height="50" as="geometry" />
        </mxCell>
        <mxCell id="zL4rEWdgPfDy6z_3ENHg-14" value="Espacio 10" style="rounded=0;whiteSpace=wrap;html=1;" vertex="1" parent="1">
          <mxGeometry x="200" y="160" width="120" height="50" as="geometry" />
        </mxCell>
        <mxCell id="zL4rEWdgPfDy6z_3ENHg-15" value="" style="endArrow=none;html=1;rounded=0;exitX=1;exitY=1;exitDx=0;exitDy=0;entryX=0;entryY=0;entryDx=0;entryDy=0;" edge="1" parent="1" source="zL4rEWdgPfDy6z_3ENHg-6" target="zL4rEWdgPfDy6z_3ENHg-10">
          <mxGeometry width="50" height="50" relative="1" as="geometry">
            <mxPoint x="420" y="270" as="sourcePoint" />
            <mxPoint x="470" y="220" as="targetPoint" />
          </mxGeometry>
        </mxCell>
        <mxCell id="zL4rEWdgPfDy6z_3ENHg-16" value="" style="endArrow=none;html=1;rounded=0;entryX=0;entryY=1;entryDx=0;entryDy=0;exitX=1;exitY=0;exitDx=0;exitDy=0;" edge="1" parent="1" source="zL4rEWdgPfDy6z_3ENHg-12" target="zL4rEWdgPfDy6z_3ENHg-7">
          <mxGeometry width="50" height="50" relative="1" as="geometry">
            <mxPoint x="420" y="270" as="sourcePoint" />
            <mxPoint x="470" y="220" as="targetPoint" />
          </mxGeometry>
        </mxCell>
        <mxCell id="zL4rEWdgPfDy6z_3ENHg-17" value="" style="endArrow=none;html=1;rounded=0;entryX=0.5;entryY=1;entryDx=0;entryDy=0;exitX=0.5;exitY=0;exitDx=0;exitDy=0;" edge="1" parent="1" source="zL4rEWdgPfDy6z_3ENHg-11" target="zL4rEWdgPfDy6z_3ENHg-1">
          <mxGeometry width="50" height="50" relative="1" as="geometry">
            <mxPoint x="420" y="270" as="sourcePoint" />
            <mxPoint x="470" y="220" as="targetPoint" />
          </mxGeometry>
        </mxCell>
        <mxCell id="zL4rEWdgPfDy6z_3ENHg-18" value="" style="endArrow=none;html=1;rounded=0;exitX=1;exitY=0.5;exitDx=0;exitDy=0;entryX=0;entryY=0.5;entryDx=0;entryDy=0;" edge="1" parent="1" source="zL4rEWdgPfDy6z_3ENHg-13" target="zL4rEWdgPfDy6z_3ENHg-8">
          <mxGeometry width="50" height="50" relative="1" as="geometry">
            <mxPoint x="420" y="270" as="sourcePoint" />
            <mxPoint x="470" y="220" as="targetPoint" />
          </mxGeometry>
        </mxCell>
        <mxCell id="zL4rEWdgPfDy6z_3ENHg-19" value="" style="endArrow=none;html=1;rounded=0;entryX=0;entryY=0.5;entryDx=0;entryDy=0;exitX=1;exitY=0.5;exitDx=0;exitDy=0;" edge="1" parent="1" source="zL4rEWdgPfDy6z_3ENHg-14" target="zL4rEWdgPfDy6z_3ENHg-9">
          <mxGeometry width="50" height="50" relative="1" as="geometry">
            <mxPoint x="420" y="270" as="sourcePoint" />
            <mxPoint x="470" y="220" as="targetPoint" />
          </mxGeometry>
        </mxCell>
        <mxCell id="AnHeMa4yB2fgQZpyOYgM-1" value="&lt;span style=&quot;color: rgb(0, 0, 0); font-family: Helvetica; font-size: 12px; font-style: normal; font-variant-ligatures: normal; font-variant-caps: normal; font-weight: 400; letter-spacing: normal; orphans: 2; text-align: center; text-indent: 0px; text-transform: none; widows: 2; word-spacing: 0px; -webkit-text-stroke-width: 0px; white-space: normal; background-color: rgb(251, 251, 251); text-decoration-thickness: initial; text-decoration-style: initial; text-decoration-color: initial; display: inline !important; float: none;&quot;&gt;Servidor principal&lt;/span&gt;&lt;div style=&quot;forced-color-adjust: none; color: rgb(0, 0, 0); font-family: Helvetica; font-size: 12px; font-style: normal; font-variant-ligatures: normal; font-variant-caps: normal; font-weight: 400; letter-spacing: normal; orphans: 2; text-align: center; text-indent: 0px; text-transform: none; widows: 2; word-spacing: 0px; -webkit-text-stroke-width: 0px; white-space: normal; background-color: rgb(251, 251, 251); text-decoration-thickness: initial; text-decoration-style: initial; text-decoration-color: initial;&quot;&gt;API REST: Fastapi&lt;/div&gt;" style="rounded=1;whiteSpace=wrap;html=1;" vertex="1" parent="1">
          <mxGeometry x="360" y="160" width="120" height="120" as="geometry" />
        </mxCell>
      </root>
    </mxGraphModel>
  </diagram>
</mxfile>
